<?xml version="1.0" encoding="utf-8"?>
<!-- Generator: Adobe Illustrator 22.0.1, SVG Export Plug-In . SVG Version: 6.00 Build 0)  -->
<svg version="1.1" id="Layer_1" xmlns="http://www.w3.org/2000/svg" xmlns:xlink="http://www.w3.org/1999/xlink" x="0px" y="0px"
	 viewBox="0 0 192.1 25.3" style="enable-background:new 0 0 192.1 25.3;" xml:space="preserve">
<style type="text/css">
	.st0{fill:none;stroke:#00E59E;stroke-width:2.25;stroke-linecap:round;stroke-linejoin:round;stroke-miterlimit:10;}
	.st1{fill:#013A51;}
	.st2{display:none;}
	.st3{display:inline;}
	.st4{fill:none;stroke:#00FFB0;stroke-width:2.5;stroke-linecap:round;stroke-linejoin:round;stroke-miterlimit:10;}
</style>
<g id="Layer_1_1_">
	<g>
		<g>
			<g>
				<g>
					<polygon class="st0" points="7.9,1.1 21.1,1.1 7.9,24.1 1.1,12.6 					"/>
				</g>
				<g>
					<polygon class="st0" points="7.9,24.1 21.1,24.1 7.9,1.1 1.1,12.6 					"/>
				</g>
			</g>
		</g>
		<g>
			<circle class="st1" cx="142.2" cy="17.8" r="1.9"/>
			<g>
				<path class="st1" d="M32.9,19.2c-0.9-0.4-1.6-0.9-2.2-1.5c-0.6-0.6-1.1-1.4-1.4-2.3c-0.3-0.8-0.4-1.8-0.4-2.8s0.2-1.9,0.5-2.8
					s0.8-1.6,1.4-2.3c0.6-0.6,1.3-1.1,2.1-1.5s1.8-0.6,2.8-0.6c0.9,0,1.7,0.1,2.4,0.4c0.7,0.2,1.3,0.6,1.8,1s0.9,0.9,1.3,1.6
					c0.3,0.6,0.5,1.3,0.7,2h-3.5c-0.1-0.6-0.4-1.1-0.8-1.5c-0.4-0.4-1-0.6-1.6-0.6c-1.1,0-1.9,0.4-2.5,1.1c-0.5,0.8-0.8,1.8-0.8,3.1
					c0,1.3,0.3,2.3,0.8,3.1c0.5,0.8,1.3,1.2,2.4,1.2c0.7,0,1.3-0.2,1.8-0.6c0.5-0.4,0.8-1,0.9-1.7h3.5c-0.1,0.7-0.2,1.4-0.5,2
					c-0.3,0.6-0.7,1.2-1.2,1.6c-0.5,0.5-1.1,0.8-1.9,1.1c-0.7,0.3-1.5,0.4-2.4,0.4C34.7,19.8,33.8,19.6,32.9,19.2z"/>
				<path class="st1" d="M47.5,7.6c0.5-0.7,1-1.3,1.6-1.6c0.6-0.4,1.4-0.5,2.3-0.5c0.7,0,1.3,0.1,1.9,0.4s1.1,0.6,1.5,1.1
					c0.4,0.4,0.7,1,0.9,1.6c0.2,0.6,0.3,1.3,0.3,2v8.8h-3.6v-8.3c0-0.7-0.2-1.3-0.6-1.8s-1-0.7-1.7-0.7c-0.8,0-1.4,0.3-2,0.9
					c-0.5,0.6-0.8,1.3-0.8,2.3v7.7h-3.6v-19h3.6L47.5,7.6L47.5,7.6z"/>
				<path class="st1" d="M62,19.2c-0.9-0.4-1.6-0.9-2.2-1.5s-1.1-1.4-1.4-2.3c-0.3-0.9-0.4-1.8-0.4-2.8s0.2-1.9,0.5-2.8
					s0.8-1.6,1.4-2.3C60.5,6.9,61.2,6.4,62,6c0.8-0.4,1.7-0.6,2.7-0.6c1.1,0,2,0.2,2.9,0.6c0.8,0.4,1.5,1,2.1,1.7s1,1.6,1.3,2.6
					s0.4,2.1,0.4,3.3h-9.8c0.1,1.1,0.5,1.9,1.1,2.5c0.6,0.6,1.4,0.9,2.4,0.9c0.7,0,1.3-0.1,1.7-0.4c0.4-0.3,0.7-0.7,0.9-1.2h3.4
					c-0.1,0.6-0.3,1.2-0.7,1.7c-0.3,0.5-0.7,1-1.3,1.4c-0.5,0.4-1.1,0.7-1.8,1c-0.7,0.2-1.5,0.4-2.3,0.4
					C63.9,19.8,62.9,19.6,62,19.2z M62.5,9c-0.5,0.5-0.8,1.2-1,2.1h6c-0.1-0.9-0.3-1.6-0.9-2.1c-0.5-0.5-1.2-0.8-2-0.8
					C63.8,8.2,63,8.5,62.5,9z"/>
				<path class="st1" d="M76.7,19.2c-0.9-0.4-1.6-0.9-2.2-1.5s-1.1-1.4-1.4-2.3c-0.3-0.8-0.5-1.8-0.5-2.8s0.2-1.9,0.5-2.8
					s0.8-1.6,1.4-2.3c0.6-0.6,1.3-1.1,2.1-1.5c0.8-0.4,1.8-0.6,2.8-0.6c0.9,0,1.7,0.1,2.4,0.4c0.7,0.2,1.3,0.6,1.8,1
					s0.9,0.9,1.3,1.6c0.3,0.6,0.5,1.3,0.7,2h-3.5c-0.1-0.6-0.4-1.1-0.8-1.5s-1-0.6-1.6-0.6c-1.1,0-1.9,0.4-2.5,1.1
					c-0.5,0.8-0.8,1.8-0.8,3.1c0,1.3,0.3,2.3,0.8,3.1c0.5,0.8,1.3,1.2,2.4,1.2c0.7,0,1.3-0.2,1.8-0.6c0.5-0.4,0.8-1,0.9-1.7h3.5
					c-0.1,0.7-0.2,1.4-0.5,2c-0.3,0.6-0.7,1.2-1.2,1.6c-0.5,0.5-1.1,0.8-1.9,1.1c-0.7,0.3-1.5,0.4-2.4,0.4
					C78.5,19.8,77.5,19.6,76.7,19.2z"/>
				<path class="st1" d="M91.1,14.8v4.6h-3.6V0.5h3.6v10.4l4.8-5.1h4.3l-5,5.1l5.6,8.4h-4.3l-3.8-6.2L91.1,14.8z"/>
				<path class="st1" d="M104.8,19.2c-0.9-0.4-1.6-0.9-2.2-1.5s-1.1-1.4-1.5-2.3c-0.3-0.9-0.5-1.8-0.5-2.8s0.2-1.9,0.5-2.8
					s0.8-1.6,1.5-2.3c0.6-0.6,1.4-1.1,2.2-1.5c0.9-0.4,1.8-0.6,2.9-0.6s2,0.2,2.9,0.6c0.9,0.4,1.6,0.9,2.2,1.5
					c0.6,0.6,1.1,1.4,1.4,2.3c0.3,0.9,0.5,1.8,0.5,2.8s-0.2,1.9-0.5,2.8c-0.3,0.9-0.8,1.6-1.4,2.3c-0.6,0.6-1.4,1.1-2.2,1.5
					c-0.9,0.4-1.8,0.6-2.9,0.6C106.6,19.8,105.6,19.6,104.8,19.2z M110.2,15.8c0.6-0.8,0.9-1.9,0.9-3.2s-0.3-2.4-0.9-3.2
					c-0.6-0.8-1.4-1.2-2.5-1.2s-2,0.4-2.5,1.2c-0.6,0.8-0.9,1.9-0.9,3.2s0.3,2.4,0.9,3.2c0.6,0.8,1.4,1.2,2.5,1.2
					C108.7,17,109.6,16.6,110.2,15.8z"/>
				<path class="st1" d="M125.2,17.8L125.2,17.8c-0.5,0.6-1.1,1.1-1.6,1.4c-0.6,0.3-1.4,0.5-2.3,0.5c-1.5,0-2.7-0.4-3.5-1.3
					c-0.8-0.9-1.2-2.1-1.2-3.6v-9h3.6v8.4c0,0.8,0.2,1.4,0.5,1.8c0.4,0.4,0.9,0.6,1.7,0.6s1.5-0.3,2-0.9c0.5-0.6,0.7-1.3,0.7-2.2
					V5.7h3.6v13.5h-3.5V17.8z"/>
				<path class="st1" d="M132.1,5.9V1.6h3.5v4.2h2.3v2.4h-2.3v7.2c0,0.5,0.1,0.9,0.4,1.1c0.2,0.2,0.6,0.3,1,0.3h0.7
					c0.1,0,0.2,0,0.4,0v2.6c-0.2,0-0.4,0-0.6,0c-0.2,0-0.4,0-0.7,0h-0.9c-0.4,0-0.9,0-1.3-0.1c-0.4-0.1-0.8-0.3-1.2-0.5
					s-0.6-0.6-0.9-1c-0.2-0.4-0.3-0.9-0.3-1.6V8.3h-1.9V5.9H132.1z"/>
				<path class="st1" d="M149.3,19.2c-0.8-0.4-1.4-0.9-1.9-1.5s-0.9-1.4-1.2-2.3c-0.3-0.9-0.4-1.8-0.4-2.8s0.1-2,0.4-2.8
					c0.3-0.9,0.7-1.6,1.2-2.3c0.5-0.6,1.2-1.1,2-1.5s1.7-0.5,2.6-0.5c1.5,0,2.7,0.4,3.7,1.2c1,0.8,1.6,1.9,1.8,3.3h-1.6
					c-0.2-1-0.6-1.8-1.3-2.3s-1.5-0.8-2.6-0.8c-0.8,0-1.5,0.2-2,0.5c-0.6,0.3-1,0.7-1.4,1.2s-0.6,1.1-0.8,1.8
					c-0.2,0.7-0.3,1.4-0.3,2.2s0.1,1.5,0.3,2.2s0.5,1.3,0.8,1.8c0.4,0.5,0.8,0.9,1.4,1.2c0.6,0.3,1.2,0.4,2,0.4c1.2,0,2.1-0.3,2.8-1
					s1.1-1.5,1.3-2.6h1.6c-0.2,1.5-0.7,2.8-1.7,3.7s-2.3,1.4-3.9,1.4C151,19.7,150.1,19.5,149.3,19.2z"/>
				<path class="st1" d="M162.7,19.2c-0.8-0.4-1.4-0.9-2-1.5c-0.5-0.6-1-1.4-1.3-2.3c-0.3-0.9-0.4-1.8-0.4-2.8s0.1-2,0.4-2.8
					c0.3-0.9,0.7-1.6,1.3-2.3c0.5-0.6,1.2-1.1,2-1.5s1.7-0.5,2.6-0.5c1,0,1.9,0.2,2.6,0.5c0.8,0.4,1.4,0.9,2,1.5
					c0.5,0.6,1,1.4,1.2,2.3c0.3,0.9,0.4,1.8,0.4,2.8s-0.1,2-0.4,2.8c-0.3,0.9-0.7,1.6-1.2,2.3c-0.5,0.6-1.2,1.1-2,1.5
					s-1.7,0.5-2.6,0.5S163.5,19.5,162.7,19.2z M167.3,17.9c0.6-0.3,1.1-0.7,1.4-1.2c0.4-0.5,0.7-1.1,0.9-1.8s0.3-1.4,0.3-2.2
					s-0.1-1.5-0.3-2.2s-0.5-1.3-0.9-1.8s-0.9-0.9-1.4-1.2c-0.6-0.3-1.2-0.4-2-0.4s-1.4,0.1-2,0.4s-1.1,0.7-1.4,1.2
					c-0.4,0.5-0.7,1.1-0.9,1.8c-0.2,0.7-0.3,1.4-0.3,2.2s0.1,1.5,0.3,2.2s0.5,1.3,0.9,1.8s0.9,0.9,1.4,1.2c0.6,0.3,1.2,0.4,2,0.4
					S166.8,18.2,167.3,17.9z"/>
				<path class="st1" d="M175.6,5.7v2.1h0.1c0.4-0.7,1-1.2,1.7-1.7c0.7-0.4,1.5-0.7,2.5-0.7c0.8,0,1.6,0.2,2.2,0.6
					c0.7,0.4,1.1,1,1.4,1.9h0.1c0.5-0.8,1.1-1.4,1.8-1.8s1.6-0.6,2.6-0.6c0.6,0,1.1,0.1,1.6,0.3c0.5,0.2,0.9,0.5,1.3,0.8
					c0.4,0.4,0.7,0.8,0.9,1.3s0.3,1.1,0.3,1.8v9.7h-1.6V9.9c0-1-0.3-1.8-0.8-2.3s-1.2-0.7-2.1-0.7c-0.5,0-1,0.1-1.4,0.3
					c-0.4,0.2-0.8,0.4-1.2,0.8c-0.3,0.3-0.6,0.7-0.8,1.2s-0.3,1-0.3,1.6v8.7h-1.8V10c0-1-0.3-1.8-0.8-2.3s-1.2-0.7-2-0.7
					c-0.5,0-1,0.1-1.4,0.3c-0.5,0.2-0.9,0.5-1.2,0.8c-0.4,0.3-0.6,0.8-0.9,1.2c-0.2,0.5-0.3,1-0.3,1.5v8.7h-1.6V5.7H175.6z"/>
			</g>
		</g>
	</g>
</g>
<g id="old" class="st2">
	<g class="st3">
		<g>
			<g>
				<polygon class="st4" points="10.8,60.5 24,60.5 10.8,83.6 4,72.1 				"/>
			</g>
			<g>
				<polygon class="st4" points="10.8,83.6 24,83.6 10.8,60.5 4,72.1 				"/>
			</g>
		</g>
	</g>
	<g class="st3">
		<g>
			<path class="st1" d="M35.7,79.8c-0.9-0.4-1.6-0.9-2.2-1.5c-0.6-0.6-1.1-1.4-1.4-2.3c-0.3-0.9-0.5-1.8-0.5-2.8s0.2-1.9,0.5-2.8
				c0.3-0.9,0.8-1.6,1.4-2.3c0.6-0.6,1.3-1.2,2.1-1.5c0.8-0.4,1.8-0.6,2.8-0.6c0.9,0,1.7,0.1,2.4,0.4c0.7,0.2,1.3,0.6,1.8,1
				s0.9,1,1.3,1.6c0.3,0.6,0.6,1.3,0.7,2h-3.5c-0.1-0.6-0.4-1.1-0.8-1.5c-0.4-0.4-1-0.6-1.7-0.6c-1.1,0-1.9,0.4-2.5,1.2
				s-0.8,1.8-0.8,3.1c0,1.3,0.3,2.3,0.8,3.1s1.3,1.2,2.5,1.2c0.7,0,1.4-0.2,1.8-0.6s0.8-1,0.9-1.7h3.5c-0.1,0.7-0.2,1.4-0.5,2
				s-0.7,1.2-1.2,1.6c-0.5,0.5-1.1,0.8-1.9,1.1c-0.7,0.3-1.6,0.4-2.5,0.4C37.6,80.3,36.6,80.1,35.7,79.8z"/>
			<path class="st1" d="M50.4,68.1c0.5-0.7,1-1.3,1.6-1.6c0.6-0.4,1.4-0.5,2.3-0.5c0.7,0,1.3,0.1,1.9,0.4s1.1,0.6,1.5,1.1
				s0.7,1,1,1.6c0.2,0.6,0.3,1.3,0.3,2V80h-3.6v-8.4c0-0.7-0.2-1.3-0.6-1.8s-1-0.7-1.7-0.7c-0.8,0-1.5,0.3-2,0.9s-0.8,1.3-0.8,2.3
				V80h-3.6V61h3.6L50.4,68.1L50.4,68.1z"/>
			<path class="st1" d="M65,79.8c-0.9-0.4-1.6-0.9-2.2-1.5s-1.1-1.4-1.4-2.3s-0.5-1.8-0.5-2.8s0.2-1.9,0.5-2.8s0.8-1.6,1.4-2.3
				c0.6-0.6,1.3-1.1,2.1-1.5c0.8-0.4,1.7-0.6,2.7-0.6c1.1,0,2.1,0.2,2.9,0.6s1.5,1,2.1,1.7s1,1.6,1.3,2.6s0.4,2.1,0.4,3.3h-9.9
				c0.1,1.1,0.5,1.9,1.1,2.5s1.4,0.9,2.4,0.9c0.7,0,1.3-0.2,1.7-0.5c0.4-0.3,0.7-0.7,0.9-1.2h3.6c-0.1,0.6-0.3,1.2-0.7,1.7
				c-0.3,0.5-0.8,1-1.3,1.4s-1.1,0.7-1.8,1c-0.7,0.2-1.5,0.4-2.4,0.4C66.8,80.3,65.8,80.1,65,79.8z M65.5,69.5
				c-0.5,0.5-0.8,1.2-1,2.1h6c-0.1-0.9-0.3-1.6-0.9-2.1c-0.5-0.5-1.2-0.8-2-0.8C66.7,68.7,66,69,65.5,69.5z"/>
			<path class="st1" d="M79.7,79.8c-0.9-0.4-1.6-0.9-2.2-1.5s-1.1-1.4-1.4-2.3s-0.5-1.8-0.5-2.8s0.2-1.9,0.5-2.8s0.8-1.6,1.4-2.3
				c0.6-0.6,1.3-1.2,2.1-1.5c0.8-0.4,1.8-0.6,2.8-0.6c0.9,0,1.7,0.1,2.4,0.4c0.7,0.2,1.3,0.6,1.8,1s0.9,1,1.3,1.6
				c0.3,0.6,0.6,1.3,0.7,2h-3.5c-0.1-0.6-0.4-1.1-0.8-1.5s-1-0.6-1.7-0.6c-1.1,0-1.9,0.4-2.5,1.2s-0.8,1.8-0.8,3.1
				c0,1.3,0.3,2.3,0.8,3.1s1.3,1.2,2.5,1.2c0.7,0,1.4-0.2,1.8-0.6s0.8-1,0.9-1.7h3.5c-0.1,0.7-0.2,1.4-0.5,2s-0.7,1.2-1.2,1.6
				c-0.5,0.5-1.1,0.8-1.9,1.1c-0.7,0.3-1.6,0.4-2.5,0.4C81.5,80.3,80.6,80.1,79.7,79.8z"/>
			<path class="st1" d="M94.2,75.3v4.6h-3.6V61h3.6v10.5l4.8-5.1h4.3l-5,5.2l5.6,8.4h-4.4l-3.8-6.2L94.2,75.3z"/>
			<path class="st1" d="M107.9,79.8c-0.9-0.4-1.6-0.9-2.2-1.5s-1.1-1.4-1.5-2.3s-0.5-1.8-0.5-2.8s0.2-1.9,0.5-2.8s0.8-1.6,1.5-2.3
				c0.6-0.6,1.4-1.2,2.2-1.5c0.9-0.4,1.8-0.6,2.9-0.6s2,0.2,2.9,0.6s1.6,0.9,2.2,1.5c0.6,0.6,1.1,1.4,1.5,2.3s0.5,1.8,0.5,2.8
				s-0.2,1.9-0.5,2.8s-0.8,1.6-1.5,2.3c-0.6,0.6-1.4,1.2-2.2,1.5c-0.9,0.4-1.8,0.6-2.9,0.6S108.8,80.1,107.9,79.8z M113.4,76.3
				c0.6-0.8,0.9-1.9,0.9-3.2s-0.3-2.4-0.9-3.2s-1.4-1.2-2.6-1.2s-2,0.4-2.6,1.2s-0.9,1.9-0.9,3.2s0.3,2.4,0.9,3.2s1.4,1.2,2.6,1.2
				S112.8,77.2,113.4,76.3z"/>
			<path class="st1" d="M128.5,78.3L128.5,78.3c-0.5,0.6-1.1,1.1-1.7,1.4s-1.4,0.5-2.3,0.5c-1.5,0-2.7-0.4-3.5-1.3s-1.2-2.1-1.2-3.6
				v-9.1h3.6v8.5c0,0.8,0.2,1.4,0.5,1.8c0.4,0.4,0.9,0.6,1.7,0.6s1.5-0.3,2-0.9c0.5-0.6,0.7-1.3,0.7-2.2v-7.8h3.6v13.6h-3.5
				L128.5,78.3L128.5,78.3z"/>
			<path class="st1" d="M135.4,66.3v-4.2h3.5v4.2h2.3v2.4h-2.3v7.2c0,0.5,0.1,0.9,0.4,1.1s0.6,0.3,1,0.3h0.7c0.1,0,0.2,0,0.4,0v2.6
				c-0.2,0-0.4,0-0.6,0c-0.2,0-0.4,0-0.7,0h-1c-0.4,0-0.9,0-1.3-0.1s-0.8-0.3-1.2-0.5s-0.6-0.6-0.9-1c-0.2-0.4-0.3-1-0.3-1.6v-8
				h-1.9v-2.4H135.4z"/>
			<path class="st1" d="M147.5,76.1v3.8h-3.9v-3.8H147.5z"/>
			<path class="st1" d="M160.3,77.3c-0.3,0.6-0.7,1.1-1.1,1.6c-0.5,0.4-1,0.8-1.7,1s-1.4,0.4-2.3,0.4c-1,0-1.9-0.2-2.6-0.6
				s-1.4-0.9-1.9-1.5s-0.9-1.4-1.2-2.3s-0.4-1.8-0.4-2.8s0.1-1.9,0.4-2.8c0.3-0.9,0.7-1.6,1.2-2.2s1.2-1.1,1.9-1.5
				c0.8-0.4,1.6-0.6,2.6-0.6c1.5,0,2.7,0.4,3.7,1.1s1.6,1.8,1.8,3.2h-0.8c-0.3-1.3-0.9-2.2-1.7-2.7c-0.9-0.6-1.9-0.8-3-0.8
				c-0.8,0-1.5,0.2-2.2,0.5s-1.2,0.7-1.7,1.3c-0.5,0.6-0.8,1.2-1.1,2s-0.4,1.6-0.4,2.6s0.1,1.8,0.4,2.6c0.3,0.8,0.6,1.5,1.1,2
				s1,1,1.7,1.3s1.4,0.5,2.2,0.5c1.4,0,2.5-0.4,3.4-1.1c0.8-0.8,1.3-1.8,1.5-3h0.8C160.8,76,160.6,76.7,160.3,77.3z"/>
			<path class="st1" d="M166,79.6c-0.8-0.4-1.4-0.9-2-1.5c-0.5-0.6-0.9-1.4-1.2-2.3s-0.4-1.8-0.4-2.8s0.1-1.9,0.4-2.8
				c0.3-0.9,0.7-1.6,1.2-2.3c0.5-0.6,1.2-1.1,2-1.5s1.6-0.6,2.6-0.6s1.8,0.2,2.6,0.6s1.4,0.9,2,1.5s0.9,1.4,1.2,2.2
				c0.3,0.9,0.4,1.8,0.4,2.8s-0.1,1.9-0.4,2.8c-0.3,0.9-0.7,1.6-1.2,2.3c-0.5,0.6-1.2,1.2-2,1.5s-1.7,0.6-2.6,0.6S166.7,80,166,79.6
				z M170.8,79c0.7-0.3,1.2-0.7,1.7-1.3c0.5-0.6,0.8-1.2,1.1-2s0.4-1.7,0.4-2.6c0-1-0.1-1.8-0.4-2.6c-0.3-0.8-0.6-1.5-1.1-2
				c-0.5-0.6-1-1-1.7-1.3s-1.4-0.5-2.2-0.5s-1.5,0.2-2.2,0.5s-1.2,0.7-1.7,1.3c-0.5,0.6-0.9,1.2-1.1,2c-0.3,0.8-0.4,1.7-0.4,2.6
				c0,1,0.1,1.8,0.4,2.6c0.3,0.8,0.6,1.5,1.1,2c0.5,0.6,1,1,1.7,1.3s1.4,0.5,2.2,0.5S170.1,79.3,170.8,79z"/>
			<path class="st1" d="M185.6,79.9v-9.7c0-1.2-0.3-2-0.9-2.6c-0.6-0.6-1.4-0.9-2.4-0.9c-0.6,0-1.2,0.1-1.7,0.3
				c-0.5,0.2-1,0.5-1.4,0.9s-0.7,0.8-0.9,1.3s-0.3,1-0.3,1.5v9.2h-0.9V66.2h0.8v2.4h0.1c0.2-0.3,0.4-0.7,0.7-1s0.6-0.6,0.9-0.8
				c0.4-0.2,0.8-0.4,1.2-0.6c0.5-0.2,1-0.2,1.6-0.2c1,0,1.9,0.2,2.5,0.7s1.1,1.2,1.2,2h0.1c0.4-0.8,0.9-1.5,1.7-2s1.7-0.8,2.9-0.8
				c1.3,0,2.3,0.4,3,1.1c0.7,0.8,1,1.7,1,3v9.8H194v-9.7c0-1.2-0.3-2-0.9-2.6c-0.6-0.6-1.4-0.9-2.5-0.9c-0.6,0-1.2,0.1-1.7,0.3
				c-0.5,0.2-1,0.5-1.4,0.8c-0.4,0.4-0.7,0.8-0.9,1.3s-0.3,1-0.3,1.6v9.2L185.6,79.9L185.6,79.9z"/>
		</g>
	</g>
</g>
</svg>
